#!OML:ASF E:\Mandelcareful walks\Project 1\Capture day 1\Session 1\Subject1.ASF
:FULLY-SPECIFIED
:DEGREES
248
root 12.4669 10.3963 -0.331379 185.979 -45.4554 -185.132
lowerback 63.9653 0.133279 4.40388
upperback 12.6024 -2.39183 4.84233
thorax -7.10935 -3.66141 4.89402
lowerneck -12.2703 -1.65788 4.51552
upperneck 39.22 -7.73478 0.0747413
head 15.844 -3.13118 -2.20756
rclavicle 1.98785e-014 1.82882e-014
rhumerus 51.3656 -7.83792 -58.9295
rradius 130.358
rwrist -31.0141
rhand -4.99171 -9.87144
rfingers 7.12502
rthumb 20.8014 -38.7764
lclavicle 1.98785e-014 1.82882e-014
lhumerus 57.0199 -14.0526 50.9894
lradius 127.097
lwrist 31.3292
lhand -34.5774 -39.1011
lfingers 7.12502
lthumb -7.73689 -9.26264
rfemur -84.7883 -10.3045 15.8874
rtibia 111.728
rfoot -25.6295 9.78493
rtoes 4.80178
lfemur -42.02 53.8803 12.0626
ltibia 114.039
lfoot -35.2478 13.5765
ltoes 6.65529
249
root 12.4774 10.2551 -0.399379 185.947 -45.4919 -185.344
lowerback 63.7492 0.215663 4.39809
upperback 12.8833 -2.39923 4.90641
thorax -6.78724 -3.69657 4.9436
lowerneck -11.3301 -1.5979 4.80741
upperneck 39.1751 -7.70218 -0.00668567
head 15.5813 -3.11433 -2.24871
rclavicle 5.32743e-014 -6.02318e-014
rhumerus 51.2364 -7.64342 -58.5653
rradius 131.149
rwrist -30.0161
rhand -4.3937 -10.536
rfingers 7.12502
rthumb 21.3759 -39.3769
lclavicle 5.32743e-014 -6.02318e-014
lhumerus 57.1548 -15.071 50.7766
lradius 127.367
lwrist 30.4962
lhand -34.1907 -39.3342
lfingers 7.12502
lthumb -7.36364 -9.48235
rfemur -85.6516 -10.9155 16.3113
rtibia 113.27
rfoot -26.1628 10.1332
rtoes 5.03585
lfemur -41.5101 53.9528 13.3875
ltibia 114.865
lfoot -35.336 13.1705
ltoes 7.57302
250
root 12.4913 10.1259 -0.459899 186.096 -45.5957 -185.774
lowerback 63.567 -0.0629832 4.50136
upperback 13.1211 -2.76585 4.59218
thorax -6.49445 -3.84651 4.67686
lowerneck -10.8694 -1.75194 4.71323
upperneck 39.5449 -8.09135 0.0603262
head 15.66 -3.28145 -2.25986
rclavicle -3.26007e-014 6.67916e-014
rhumerus 51.2151 -6.96664 -58.347
rradius 131.237
rwrist -28.2438
rhand -5.14873 -9.11489
rfingers 7.12502
rthumb 20.6505 -38.0363
lclavicle -3.26007e-014 6.67916e-014
lhumerus 56.9902 -15.7635 50.3574
lradius 127.427
lwrist 29.3775
lhand -34.5285 -40.6307
lfingers 7.12502
lthumb -7.68969 -10.7905
rfemur -86.5123 -11.7193 16.5192
rtibia 114.684
rfoot -26.6006 10.842
rtoes 4.95256
lfemur -41.1211 53.969 14.2711
ltibia 115.564
lfoot -35.4968 12.8684
ltoes 9.22166
251
root 12.5109 10.0134 -0.522691 186.244 -45.5013 -186.005
lowerback 63.3097 0.268489 4.26534
upperback 13.3227 -2.58213 4.72442
thorax -6.28066 -3.79255 4.82416
lowerneck -10.2582 -1.76069 4.80781
upperneck 39.6466 -8.07922 -0.16421
head 15.5459 -3.30397 -2.34643
rclavicle 1.90833e-014 -1.00386e-013
rhumerus 51.088 -6.69893 -57.6022
rradius 131.289
rwrist -27.4411
rhand -5.84798 -8.0361
rfingers 7.12502
rthumb 19.9785 -37.0291
lclavicle 1.90833e-014 -1.00386e-013
lhumerus 56.8805 -16.6619 50.54
lradius 127.452
lwrist 28.0401
lhand -35.7717 -41.4493
lfingers 7.12502
lthumb -8.88953 -11.6566
rfemur -87.4257 -12.0902 16.8043
rtibia 115.929
rfoot -26.8683 11.355
rtoes 5.4963
lfemur -40.8077 54.3197 15.1941
ltibia 116.177
lfoot -35.5389 12.9545
ltoes 9.43538
252
root 12.5435 9.91271 -0.583437 186.237 -45.144 -185.888
lowerback 63.2361 0.847465 3.8678
upperback 13.4132 -2.18954 4.86367
thorax -6.21315 -3.64782 4.97619
lowerneck -9.67223 -1.77449 4.79676
upperneck 39.4835 -8.10785 -0.0183296
head 15.3353 -3.3173 -2.25557
rclavicle 3.4191e-014 -8.94531e-015
rhumerus 50.9917 -6.64499 -57.1011
rradius 131.533
rwrist -27.8316
rhand -5.57985 -8.25139
rfingers 7.12502
rthumb 20.2362 -37.2173
lclavicle 3.4191e-014 -8.94531e-015
lhumerus 56.7914 -17.4311 50.6739
lradius 127.523
lwrist 27.1446
lhand -36.6926 -41.95
lfingers 7.12502
lthumb -9.77808 -12.197
rfemur -88.3649 -11.7325 17.3279
rtibia 116.951
rfoot -26.9908 11.3886
rtoes 5.45648
lfemur -40.4868 55.0108 16.4968
ltibia 116.732
lfoot -35.4417 13.1214
ltoes 7.36354
253
root 12.5649 9.83556 -0.630344 186.095 -45.4749 -185.844
lowerback 63.2747 0.568324 4.20109
upperback 13.5457 -2.36439 4.7026
thorax -6.04254 -3.71655 4.71691
lowerneck -9.14546 -1.6765 4.61774
upperneck 38.8985 -7.96186 0.611515
head 14.9763 -3.22862 -1.89889
rclavicle -3.10104e-014 8.3092e-014
rhumerus 51.0552 -6.68412 -57.1002
rradius 131.806
rwrist -28.4205
rhand -4.63784 -9.06126
rfingers 7.12502
rthumb 21.1413 -37.9286
lclavicle -3.10104e-014 8.3092e-014
lhumerus 56.9626 -17.8364 50.35
lradius 127.593
lwrist 26.9758
lhand -36.682 -42.3857
lfingers 7.12502
lthumb -9.76786 -12.6322
rfemur -88.7805 -12.4176 17.8277
rtibia 117.79
rfoot -27.31 11.6262
rtoes 4.51212
lfemur -40.807 54.9148 17.0865
ltibia 117.196
lfoot -35.4305 13.0176
ltoes 6.98182
254
root 12.5922 9.76157 -0.67535 186.096 -45.5916 -185.782
lowerback 63.158 0.5173 4.2656
upperback 13.6646 -2.42661 4.5423
thorax -5.90428 -3.73053 4.52215
lowerneck -8.89384 -1.58175 4.651
upperneck 38.6918 -7.87292 0.911888
head 14.8399 -3.16034 -1.75249
rclavicle -1.03368e-014 -6.2816e-014
rhumerus 50.9933 -6.6138 -57.1102
rradius 131.918
rwrist -28.5261
rhand -3.89905 -9.39736
rfingers 7.12502
rthumb 21.8509 -38.1836
lclavicle -1.03368e-014 -6.2816e-014
lhumerus 57.0519 -17.9987 49.9489
lradius 127.679
lwrist 27.1493
lhand -36.7705 -42.3742
lfingers 7.12502
lthumb -9.85323 -12.6248
rfemur -89.4433 -12.687 18.3353
rtibia 118.568
rfoot -27.4866 11.7224
rtoes 4.28662
lfemur -41.0176 55.05 17.7494
ltibia 117.575
lfoot -35.2869 12.645
ltoes 8.62873
255
root 12.6176 9.70659 -0.715643 186.155 -45.827 -185.904
lowerback 63.0196 0.56888 4.23082
upperback 13.8386 -2.43494 4.53631
thorax -5.7063 -3.7427 4.5158
lowerneck -8.79795 -1.67989 4.7331
upperneck 38.7975 -8.07825 0.92221
head 14.8647 -3.22871 -1.78986
rclavicle -6.36111e-015 7.35503e-015
rhumerus 50.9424 -6.67932 -56.9314
rradius 131.979
rwrist -28.4421
rhand -3.3816 -9.46285
rfingers 7.12502
rthumb 22.3477 -38.1904
lclavicle -6.36111e-015 7.35503e-015
lhumerus 57.2033 -17.9509 49.7904
lradius 127.797
lwrist 27.3514
lhand -36.9696 -42.2519
lfingers 7.12502
lthumb -10.0453 -12.5116
rfemur -89.8394 -13.0962 18.6325
rtibia 119.193
rfoot -27.6681 11.8395
rtoes 4.66254
lfemur -41.198 54.8258 17.9909
ltibia 117.8
lfoot -35.1618 12.3441
ltoes 10.5478
256
root 12.6353 9.66735 -0.754714 186.479 -46.018 -186.338
lowerback 62.882 0.611815 4.03217
upperback 13.9561 -2.53329 4.43956
thorax -5.5731 -3.78219 4.51986
lowerneck -8.06476 -1.31083 4.65928
upperneck 37.7905 -7.15349 0.964902
head 14.23 -2.88924 -1.57474
rclavicle -6.12257e-014 8.28932e-014
rhumerus 50.9173 -6.56521 -56.8463
rradius 132.054
rwrist -28.3669
rhand -2.79735 -9.539
rfingers 7.12502
rthumb 22.9084 -38.1981
lclavicle -6.12257e-014 8.28932e-014
lhumerus 57.234 -17.7566 49.5651
lradius 127.809
lwrist 27.1365
lhand -36.7474 -42.5316
lfingers 7.12502
lthumb -9.83095 -12.7811
rfemur -90.1787 -13.5318 18.6367
rtibia 119.717
rfoot -27.8427 11.9295
rtoes 4.86395
lfemur -41.3925 54.6169 17.8097
ltibia 117.963
lfoot -35.0915 12.2244
ltoes 11.2168
257
root 12.653 9.63925 -0.790482 186.722 -46.2381 -186.674
lowerback 62.8193 0.618876 3.89859
upperback 14.0249 -2.61788 4.34652
thorax -5.49441 -3.81232 4.50057
lowerneck -7.77546 -1.38646 4.33887
upperneck 37.5933 -7.18087 1.11916
head 14.0889 -2.93373 -1.44416
rclavicle -2.78299e-014 -1.47896e-013
rhumerus 50.9282 -6.41457 -56.6857
rradius 132.052
rwrist -28.2944
rhand -2.19829 -9.59041
rfingers 7.12502
rthumb 23.4832 -38.1772
lclavicle -2.78299e-014 -1.47896e-013
lhumerus 57.3428 -17.5333 49.0673
lradius 127.64
lwrist 26.4706
lhand -36.7639 -43.2856
lfingers 7.12502
lthumb -9.84683 -13.5358
rfemur -90.4118 -13.9087 18.687
rtibia 120.138
rfoot -28.1071 11.6635
rtoes 4.06176
lfemur -41.6405 54.4868 17.6422
ltibia 118.095
lfoot -35.1857 12.3862
ltoes 10.1819
258
root 12.6735 9.61041 -0.825134 187.034 -46.2848 -186.818
lowerback 62.4385 0.85894 3.65284
upperback 14.1294 -2.4816 4.33171
thorax -5.38996 -3.74003 4.5124
lowerneck -7.41962 -1.46126 4.12273
upperneck 37.5408 -7.20385 1.08275
head 13.9873 -2.98403 -1.40944
rclavicle -5.56597e-015 5.92378e-014
rhumerus 50.7224 -6.441 -56.3387
rradius 132.131
rwrist -28.4479
rhand -1.60593 -9.88701
rfingers 7.12502
rthumb 24.0513 -38.3999
lclavicle -5.56597e-015 5.92378e-014
lhumerus 57.5427 -17.4276 48.4398
lradius 127.521
lwrist 25.6987
lhand -37.0691 -43.7786
lfingers 7.12502
lthumb -10.1413 -14.043
rfemur -90.9208 -13.7924 18.8491
rtibia 120.495
rfoot -28.2972 11.1195
rtoes 2.8502
lfemur -41.949 54.6138 17.6206
ltibia 118.191
lfoot -35.29 12.4102
ltoes 9.26669
259
root 12.6958 9.59654 -0.850138 187.115 -46.4961 -186.692
lowerback 62.2755 0.967347 3.65238
upperback 14.1215 -2.31003 4.39655
thorax -5.40867 -3.64942 4.50815
lowerneck -7.13001 -1.47255 4.11629
upperneck 37.5803 -7.05651 0.671425
head 13.9166 -2.97568 -1.54298
rclavicle -2.14687e-014 -7.45443e-014
rhumerus 50.4104 -6.50998 -55.8645
rradius 132.281
rwrist -29.0025
rhand -1.11343 -10.3385
rfingers 7.12502
rthumb 24.5235 -38.7882
lclavicle -2.14687e-014 -7.45443e-014
lhumerus 57.6965 -17.4413 48.0203
lradius 127.542
lwrist 24.8619
lhand -37.2545 -43.7597
lfingers 7.12502
lthumb -10.3202 -14.0329
rfemur -91.1983 -13.6615 19.1305
rtibia 120.677
rfoot -28.3829 10.8003
rtoes 2.57332
lfemur -42.5047 54.5347 17.5383
ltibia 118.203
lfoot -35.1382 12.2643
ltoes 9.65105
260
root 12.7128 9.59309 -0.869794 187.322 -46.7243 -186.611
lowerback 61.96 0.998628 3.69973
upperback 14.1613 -2.20466 4.43774
thorax -5.36711 -3.58166 4.4759
lowerneck -6.87843 -1.40073 3.9298
upperneck 37.2529 -6.76017 0.600612
head 13.7131 -2.89176 -1.4814
rclavicle -2.06736e-014 -5.82439e-014
rhumerus 50.3565 -6.47312 -55.4562
rradius 132.263
rwrist -29.6957
rhand -0.77502 -10.4703
rfingers 7.12502
rthumb 24.8478 -38.8756
lclavicle -2.06736e-014 -5.82439e-014
lhumerus 57.9016 -17.5191 47.7274
lradius 127.571
lwrist 24.1713
lhand -37.2743 -43.733
lfingers 7.12502
lthumb -10.3393 -14.0072
rfemur -91.521 -13.5779 19.3381
rtibia 120.798
rfoot -28.384 10.5973
rtoes 2.37565
lfemur -43.3542 54.4138 17.1204
ltibia 118.161
lfoot -34.5709 12.1226
ltoes 11.1406
261
root 12.7251 9.59591 -0.890315 187.795 -46.9069 -186.89
lowerback 61.536 1.06631 3.5825
upperback 14.2628 -2.17692 4.36474
thorax -5.25409 -3.54237 4.41198
lowerneck -6.84349 -1.54595 3.62252
upperneck 37.0889 -7.07321 1.18211
head 13.6694 -2.99539 -1.23122
rclavicle 3.73715e-014 8.15017e-015
rhumerus 50.4815 -6.41429 -55.3104
rradius 132.104
rwrist -30.1202
rhand -0.385622 -10.4659
rfingers 7.12502
rthumb 25.221 -38.8192
lclavicle 3.73715e-014 8.15017e-015
lhumerus 58.2197 -17.7897 47.1952
lradius 127.588
lwrist 23.6412
lhand -37.1079 -44.0501
lfingers 7.12502
lthumb -10.1787 -14.3163
rfemur -91.8645 -13.5992 19.2405
rtibia 120.932
rfoot -28.3741 10.4021
rtoes 1.87144
lfemur -44.0933 54.2238 16.372
ltibia 118.033
lfoot -34.6855 12.5207
ltoes 8.92824
